<svg xmlns="http://www.w3.org/2000/svg" xmlns:xlink="http://www.w3.org/1999/xlink" width="1080" zoomAndPan="magnify" viewBox="0 0 810 809.999993" height="1080" preserveAspectRatio="xMidYMid meet" version="1.0"><defs><g/><clipPath id="669b2f1797"><path d="M 540 380 L 567 380 L 567 431 L 540 431 Z M 540 380 " clip-rule="nonzero"/></clipPath></defs><rect x="-81" width="972" fill="#ffffff" y="-80.999999" height="971.999992" fill-opacity="1"/><rect x="-81" width="972" fill="#ffffff" y="-80.999999" height="971.999992" fill-opacity="1"/><path fill="#000000" d="M 277.140625 420.222656 L 272.214844 428.828125 L 247.429688 389.632812 L 252.355469 381.023438 Z M 277.140625 420.222656 " fill-opacity="1" fill-rule="nonzero"/><path fill="#000000" d="M 273.054688 430.179688 L 267.898438 421.988281 L 291.378906 380.785156 L 296.535156 388.976562 Z M 273.054688 430.179688 " fill-opacity="1" fill-rule="nonzero"/><g fill="#cccccc" fill-opacity="1"><g transform="translate(310.064577, 429.921006)"><g><path d="M 1.5625 -1.9375 L 6.109375 -2.921875 L 6.109375 -46.078125 L 1.5625 -47.03125 L 1.5625 -48.96875 L 28.140625 -48.96875 L 28.140625 -37.25 L 26.390625 -37.25 L 25.546875 -45.171875 C 23.578125 -45.503906 20.722656 -45.671875 16.984375 -45.671875 L 11.203125 -45.671875 L 11.203125 -26.546875 L 20.765625 -26.546875 L 21.578125 -32.390625 L 23.28125 -32.390625 L 23.28125 -17.34375 L 21.578125 -17.34375 L 20.765625 -23.265625 L 11.203125 -23.265625 L 11.203125 -3.28125 L 18.171875 -3.28125 C 22.722656 -3.28125 25.703125 -3.476562 27.109375 -3.875 L 28.609375 -12.921875 L 30.359375 -12.921875 L 29.859375 0 L 1.5625 0 Z M 1.5625 -1.9375 "/></g></g></g><g fill="#cccccc" fill-opacity="1"><g transform="translate(343.113144, 429.921006)"><g><path d="M 30.625 -46.078125 L 25.859375 -47.03125 L 25.859375 -48.96875 L 37.9375 -48.96875 L 37.9375 -47.03125 L 33.390625 -46.078125 L 33.390625 -16.828125 C 33.390625 -10.960938 32.222656 -6.566406 29.890625 -3.640625 C 27.554688 -0.722656 24.171875 0.734375 19.734375 0.734375 C 15.035156 0.734375 11.519531 -0.726562 9.1875 -3.65625 C 6.851562 -6.59375 5.6875 -10.753906 5.6875 -16.140625 L 5.6875 -46.078125 L 1.140625 -47.03125 L 1.140625 -48.96875 L 15.296875 -48.96875 L 15.296875 -47.03125 L 10.75 -46.078125 L 10.75 -16.6875 C 10.75 -7.800781 13.875 -3.359375 20.125 -3.359375 C 23.507812 -3.359375 26.101562 -4.460938 27.90625 -6.671875 C 29.71875 -8.890625 30.625 -12.179688 30.625 -16.546875 Z M 30.625 -46.078125 "/></g></g></g><g fill="#cccccc" fill-opacity="1"><g transform="translate(382.184951, 429.921006)"><g><path d="M 11.203125 -21.984375 L 11.203125 -2.921875 L 17.09375 -1.9375 L 17.09375 0 L 1.90625 0 L 1.90625 -1.9375 L 6.109375 -2.921875 L 6.109375 -46.078125 L 1.5625 -47.03125 L 1.5625 -48.96875 L 28.140625 -48.96875 L 28.140625 -37.25 L 26.390625 -37.25 L 25.546875 -45.171875 C 23.578125 -45.503906 20.722656 -45.671875 16.984375 -45.671875 L 11.203125 -45.671875 L 11.203125 -25.265625 L 21.640625 -25.265625 L 22.453125 -31.109375 L 24.0625 -31.109375 L 24.0625 -16.0625 L 22.453125 -16.0625 L 21.640625 -21.984375 Z M 11.203125 -21.984375 "/></g></g></g><g fill="#cccccc" fill-opacity="1"><g transform="translate(412.274734, 429.921006)"><g><path d="M 11.203125 -21.46875 L 11.203125 -2.921875 L 16.5625 -1.9375 L 16.5625 0 L 1.90625 0 L 1.90625 -1.9375 L 6.109375 -2.921875 L 6.109375 -46.078125 L 1.5625 -47.03125 L 1.5625 -48.96875 L 16.859375 -48.96875 C 21.296875 -48.96875 24.570312 -47.929688 26.6875 -45.859375 C 28.800781 -43.796875 29.859375 -40.472656 29.859375 -35.890625 C 29.859375 -32.628906 29.210938 -29.8125 27.921875 -27.4375 C 26.640625 -25.0625 24.863281 -23.414062 22.59375 -22.5 L 32.1875 -2.921875 L 36.015625 -1.9375 L 36.015625 0 L 27.53125 0 L 17.5625 -21.46875 Z M 24.59375 -35.375 C 24.59375 -39.101562 23.9375 -41.75 22.625 -43.3125 C 21.3125 -44.882812 19.007812 -45.671875 15.71875 -45.671875 L 11.203125 -45.671875 L 11.203125 -24.75 L 15.875 -24.75 C 19.03125 -24.75 21.269531 -25.554688 22.59375 -27.171875 C 23.925781 -28.796875 24.59375 -31.53125 24.59375 -35.375 Z M 24.59375 -35.375 "/></g></g></g><g fill="#cccccc" fill-opacity="1"><g transform="translate(448.361334, 429.921006)"><g><path d="M 12.1875 -1.9375 L 12.1875 0 L 0.53125 0 L 0.53125 -1.9375 L 4.546875 -2.921875 L 16.625 -49.375 L 21.640625 -49.375 L 34.1875 -2.921875 L 38.6875 -1.9375 L 38.6875 0 L 23.703125 0 L 23.703125 -1.9375 L 28.453125 -2.921875 L 24.9375 -17.046875 L 10.984375 -17.046875 L 7.421875 -2.921875 Z M 17.859375 -44.109375 L 11.78125 -20.34375 L 24.125 -20.34375 Z M 17.859375 -44.109375 "/></g></g></g><g fill="#cccccc" fill-opacity="1"><g transform="translate(487.43315, 429.921006)"><g><path d="M 2.59375 -3.4375 L 22.453125 -45.828125 L 15.859375 -45.828125 C 11.503906 -45.828125 8.507812 -45.582031 6.875 -45.09375 L 6.046875 -37.390625 L 4.234375 -37.390625 L 4.234375 -48.96875 L 28.34375 -48.96875 L 28.34375 -45.828125 L 8.34375 -3.0625 L 16.015625 -3.0625 C 18.054688 -3.0625 20.128906 -3.195312 22.234375 -3.46875 C 24.335938 -3.738281 25.820312 -4.003906 26.6875 -4.265625 L 28.25 -13.625 L 30.09375 -13.625 L 29.375 0 L 2.59375 0 Z M 2.59375 -3.4375 "/></g></g></g><g fill="#cccccc" fill-opacity="1"><g transform="translate(520.481718, 429.921006)"><g><path d="M 11.578125 -2.921875 L 16.109375 -1.9375 L 16.109375 0 L 1.953125 0 L 1.953125 -1.9375 L 6.5 -2.921875 L 6.5 -46.078125 L 1.953125 -47.03125 L 1.953125 -48.96875 L 16.109375 -48.96875 L 16.109375 -47.03125 L 11.578125 -46.078125 Z M 11.578125 -2.921875 "/></g></g></g><g clip-path="url(#669b2f1797)"><g fill="#cccccc" fill-opacity="1"><g transform="translate(538.498609, 429.921006)"><g><path d="M 7.734375 -24.53125 C 7.734375 -16.675781 8.6875 -10.984375 10.59375 -7.453125 C 12.5 -3.921875 15.476562 -2.15625 19.53125 -2.15625 C 23.5625 -2.15625 26.535156 -3.921875 28.453125 -7.453125 C 30.367188 -10.984375 31.328125 -16.675781 31.328125 -24.53125 C 31.328125 -32.351562 30.367188 -37.984375 28.453125 -41.421875 C 26.546875 -44.867188 23.570312 -46.59375 19.53125 -46.59375 C 15.457031 -46.59375 12.472656 -44.867188 10.578125 -41.421875 C 8.679688 -37.984375 7.734375 -32.351562 7.734375 -24.53125 Z M 2.21875 -24.53125 C 2.21875 -41.1875 7.988281 -49.515625 19.53125 -49.515625 C 25.226562 -49.515625 29.539062 -47.398438 32.46875 -43.171875 C 35.394531 -38.953125 36.859375 -32.738281 36.859375 -24.53125 C 36.859375 -16.207031 35.378906 -9.914062 32.421875 -5.65625 C 29.460938 -1.394531 25.164062 0.734375 19.53125 0.734375 C 13.90625 0.734375 9.613281 -1.390625 6.65625 -5.640625 C 3.695312 -9.890625 2.21875 -16.1875 2.21875 -24.53125 Z M 2.21875 -24.53125 "/></g></g></g></g><path fill="#b3b3b3" d="M 300.789062 425.28125 C 300.789062 425.609375 300.757812 425.9375 300.695312 426.261719 C 300.628906 426.585938 300.535156 426.898438 300.40625 427.203125 C 300.28125 427.507812 300.125 427.800781 299.941406 428.074219 C 299.761719 428.347656 299.550781 428.601562 299.316406 428.835938 C 299.085938 429.066406 298.832031 429.277344 298.554688 429.460938 C 298.28125 429.644531 297.992188 429.796875 297.6875 429.925781 C 297.382812 430.050781 297.070312 430.144531 296.746094 430.210938 C 296.421875 430.273438 296.09375 430.308594 295.765625 430.308594 C 295.433594 430.308594 295.109375 430.273438 294.785156 430.210938 C 294.460938 430.144531 294.144531 430.050781 293.839844 429.925781 C 293.535156 429.796875 293.246094 429.644531 292.972656 429.460938 C 292.699219 429.277344 292.445312 429.066406 292.210938 428.835938 C 291.976562 428.601562 291.769531 428.347656 291.585938 428.074219 C 291.402344 427.800781 291.246094 427.507812 291.121094 427.203125 C 290.996094 426.898438 290.898438 426.585938 290.835938 426.261719 C 290.769531 425.9375 290.738281 425.609375 290.738281 425.28125 C 290.738281 424.949219 290.769531 424.625 290.835938 424.300781 C 290.898438 423.976562 290.996094 423.664062 291.121094 423.359375 C 291.246094 423.054688 291.402344 422.761719 291.585938 422.488281 C 291.769531 422.214844 291.976562 421.960938 292.210938 421.726562 C 292.445312 421.492188 292.699219 421.285156 292.972656 421.101562 C 293.246094 420.917969 293.535156 420.765625 293.839844 420.636719 C 294.144531 420.511719 294.460938 420.417969 294.785156 420.351562 C 295.109375 420.289062 295.433594 420.253906 295.765625 420.253906 C 296.09375 420.253906 296.421875 420.289062 296.746094 420.351562 C 297.070312 420.417969 297.382812 420.511719 297.6875 420.636719 C 297.992188 420.765625 298.28125 420.917969 298.554688 421.101562 C 298.832031 421.285156 299.085938 421.492188 299.316406 421.726562 C 299.550781 421.960938 299.761719 422.214844 299.941406 422.488281 C 300.125 422.761719 300.28125 423.054688 300.40625 423.359375 C 300.535156 423.664062 300.628906 423.976562 300.695312 424.300781 C 300.757812 424.625 300.789062 424.949219 300.789062 425.28125 Z M 300.789062 425.28125 " fill-opacity="1" fill-rule="nonzero"/></svg>